<svg xmlns="http://www.w3.org/2000/svg" height="249.55" viewBox="0 0 212 249.54848" width="212"><g transform="matrix(1.25 0 0 -1.25 -708.65 987.91)"><g transform="matrix(1.8983 0 0 1.8983 -583.64 -618.85)"><g fill="#fff" transform="translate(695.17 705.31)"><path d="m0 0c0-45.435-42.687-66.991-43.118-67.203l-0.747-0.369-0.385-0.189-0.385 0.189-0.747 0.369c-0.431 0.212-43.118 21.769-43.118 67.203v35.693 0.87h0.871 86.758 0.871v-0.87-35.693z" fill="#fff"/></g><g transform="translate(694.3 705.31)"><path d="m0 0c0-44.901-42.206-66.212-42.632-66.422l-0.747-0.368-0.747 0.368c-0.426 0.21-42.632 21.521-42.632 66.422v35.693h86.758v-35.693z"/></g><g fill="#a51c30" transform="translate(609.23 739.31)"><path d="m0 0v-34.003c0-44.368 41.689-64.906 41.689-64.906s41.689 20.538 41.689 64.906v34.003h-83.378z" fill="#a51c30"/></g><g transform="translate(657.76 732.03)"><path d="m0 0v-10.868h2.503v-14.883h-18.697v14.883h2.485v10.868h-15.87v-10.868h2.508v-40.634h-2.519l0.014-10.868h15.867v10.868h-2.474v14.883h18.674v-14.883h-2.491v-10.868h15.904v10.868h-2.501v40.634h2.501v10.868h-15.904z"/></g><g fill="#fff" transform="translate(659.28 730.5)"><path d="m0 0v-7.826h2.503v-17.925h-21.739v17.925h2.485v7.826h-12.828v-7.826h2.508v-43.677h-2.517l0.01-7.825h12.827v7.825h-2.473v17.926h21.715v-17.926h-2.491v-7.825h12.862v7.825h-2.501v43.677h2.501v7.826h-12.862z" fill="#fff"/></g></g></g></svg>
