<svg id="Layer_1" data-name="Layer 1" xmlns="http://www.w3.org/2000/svg" xmlns:xlink="http://www.w3.org/1999/xlink" viewBox="0 0 549.5 549.5"><defs><style>.cls-1{fill:none;}.cls-2{clip-path:url(#clip-path);}.cls-3{fill:#e5e5e4;}.cls-4{clip-path:url(#clip-path-2);}.cls-5{fill:#fff;}.cls-6{clip-path:url(#clip-path-3);}.cls-7{fill:#4a8cff;}.cls-8{clip-path:url(#clip-path-4);}</style><clipPath id="clip-path" transform="translate(670.7 244.7)"><circle class="cls-1" cx="-395.9" cy="30.1" r="261.9"/></clipPath><clipPath id="clip-path-2" transform="translate(670.7 244.7)"><circle class="cls-1" cx="-395.9" cy="30.1" r="256.8"/></clipPath><clipPath id="clip-path-3" transform="translate(670.7 244.7)"><circle class="cls-1" cx="-395.9" cy="30.1" r="236.2"/></clipPath><clipPath id="clip-path-4" transform="translate(670.7 244.7)"><path class="cls-1" d="M-324-.6l66.8-48.8c5.8-4.8,10.3-3.6,10.3,5.1V104.5c0,9.9-5.5,8.7-10.3,5.1L-324,60.9ZM-550-43.9v111a45.43,45.43,0,0,0,45.6,45.2h161.8a8.26,8.26,0,0,0,8.3-8.2V-6.9a45.43,45.43,0,0,0-45.6-45.2H-541.7A8.26,8.26,0,0,0-550-43.9Z"/></clipPath></defs><g class="cls-2"><path class="cls-3" d="M-670.7-244.7h549.5V304.8H-670.7Z" transform="translate(670.7 244.7)"/></g><g class="cls-4"><path class="cls-5" d="M-665.5-239.5h539.3V299.8H-665.5Z" transform="translate(670.7 244.7)"/></g><g class="cls-6"><path class="cls-7" d="M-645-219h498.2V279.2H-645Z" transform="translate(670.7 244.7)"/></g><g class="cls-8"><path class="cls-5" d="M-562.8-64.9h328.7v190H-562.8Z" transform="translate(670.7 244.7)"/></g></svg>